<svg width="24" height="24" viewBox="0 0 24 24" fill="none" xmlns="http://www.w3.org/2000/svg">
<g clip-path="url(#clip0_55_34)">
<path d="M10.5 15H9.5C9.224 15 9 14.776 9 14.5C9 14.224 9.224 14 9.5 14H10.5C10.776 14 11 14.224 11 14.5C11 14.776 10.776 15 10.5 15ZM15 14.5C15 14.224 14.776 14 14.5 14H13.5C13.224 14 13 14.224 13 14.5C13 14.776 13.224 15 13.5 15H14.5C14.776 15 15 14.776 15 14.5ZM11 18.5C11 18.224 10.776 18 10.5 18H9.5C9.224 18 9 18.224 9 18.5C9 18.776 9.224 19 9.5 19H10.5C10.776 19 11 18.776 11 18.5ZM15 18.5C15 18.224 14.776 18 14.5 18H13.5C13.224 18 13 18.224 13 18.5C13 18.776 13.224 19 13.5 19H14.5C14.776 19 15 18.776 15 18.5ZM11 6.5C11 6.224 10.776 6 10.5 6H9.5C9.224 6 9 6.224 9 6.5C9 6.776 9.224 7 9.5 7H10.5C10.776 7 11 6.776 11 6.5ZM15 6.5C15 6.224 14.776 6 14.5 6H13.5C13.224 6 13 6.224 13 6.5C13 6.776 13.224 7 13.5 7H14.5C14.776 7 15 6.776 15 6.5ZM11 10.5C11 10.224 10.776 10 10.5 10H9.5C9.224 10 9 10.224 9 10.5C9 10.776 9.224 11 9.5 11H10.5C10.776 11 11 10.776 11 10.5ZM15 10.5C15 10.224 14.776 10 14.5 10H13.5C13.224 10 13 10.224 13 10.5C13 10.776 13.224 11 13.5 11H14.5C14.776 11 15 10.776 15 10.5ZM24 19.442V9.5C24 7.019 21.981 5 19.5 5H19V4.558C19 2.045 16.956 0 14.442 0H9.5C7.019 0 5 2.019 5 4.5V9H4.5C2.019 9 0 11.019 0 13.5V19.5C0 21.981 2.019 24 4.5 24H19.442C21.955 24 24 21.955 24 19.442ZM5.5 10C5.776 10 6 9.776 6 9.5V4.5C6 2.57 7.57 1 9.5 1H14.442C16.404 1 18 2.596 18 4.558V5.5C18 5.776 18.224 6 18.5 6H19.5C21.43 6 23 7.57 23 9.5V19.442C23 21.404 21.404 23 19.442 23H4.5C2.57 23 1 21.43 1 19.5V13.5C1 11.57 2.57 10 4.5 10H5.5ZM20 14.5C20 14.224 19.776 14 19.5 14H18.5C18.224 14 18 14.224 18 14.5C18 14.776 18.224 15 18.5 15H19.5C19.776 15 20 14.776 20 14.5ZM20 18.5C20 18.224 19.776 18 19.5 18H18.5C18.224 18 18 18.224 18 18.5C18 18.776 18.224 19 18.5 19H19.5C19.776 19 20 18.776 20 18.5ZM6 14.5C6 14.224 5.776 14 5.5 14H4.5C4.224 14 4 14.224 4 14.5C4 14.776 4.224 15 4.5 15H5.5C5.776 15 6 14.776 6 14.5ZM6 18.5C6 18.224 5.776 18 5.5 18H4.5C4.224 18 4 18.224 4 18.5C4 18.776 4.224 19 4.5 19H5.5C5.776 19 6 18.776 6 18.5ZM20 10.5C20 10.224 19.776 10 19.5 10H18.5C18.224 10 18 10.224 18 10.5C18 10.776 18.224 11 18.5 11H19.5C19.776 11 20 10.776 20 10.5Z" fill="black"/>
</g>
<defs>
<clipPath id="clip0_55_34">
<rect width="24" height="24" fill="white"/>
</clipPath>
</defs>
</svg>
