<svg width="44" height="45" viewBox="0 0 44 45" fill="none" xmlns="http://www.w3.org/2000/svg">
<circle cx="22" cy="22.5" r="22" fill="#E7EEE9"/>
<path d="M32.39 34.9608C33.4834 34.9608 34.37 34.0743 34.37 32.9808V17.686C34.37 16.5925 33.4834 15.706 32.39 15.706H10.61C9.51655 15.706 8.63 16.5925 8.63 17.686V32.9808C8.63 34.0743 9.51655 34.9608 10.61 34.9608H32.39ZM32.39 36.2808H10.61C8.78756 36.2808 7.31 34.8033 7.31 32.9808V17.686C7.31 15.8635 8.78756 14.386 10.61 14.386H32.39C34.2124 14.386 35.69 15.8635 35.69 17.686V32.9808C35.69 34.8033 34.2124 36.2808 32.39 36.2808Z" fill="black"/>
<path d="M12.5653 15.0856V35.1483C12.5653 35.5128 12.8607 35.8083 13.2253 35.8083C13.5898 35.8083 13.8853 35.5128 13.8853 35.1483V15.0856C13.8853 14.7211 13.5898 14.4256 13.2253 14.4256C12.8607 14.4256 12.5653 14.7211 12.5653 15.0856ZM29.0982 15.4052V35.4679C29.0982 35.8324 29.3937 36.1279 29.7582 36.1279C30.1228 36.1279 30.4183 35.8324 30.4183 35.4679V15.4052C30.4183 15.0407 30.1228 14.7452 29.7582 14.7452C29.3937 14.7452 29.0982 15.0407 29.0982 15.4052ZM17.54 14.74V10.78C17.54 9.68653 18.4266 8.79998 19.52 8.79998H24.14C25.2334 8.79998 26.12 9.68653 26.12 10.78V14.74C26.12 15.1045 26.4155 15.4 26.78 15.4C27.1445 15.4 27.44 15.1045 27.44 14.74V10.78C27.44 8.95754 25.9624 7.47998 24.14 7.47998H19.52C17.6976 7.47998 16.22 8.95754 16.22 10.78V14.74C16.22 15.1045 16.5155 15.4 16.88 15.4C17.2445 15.4 17.54 15.1045 17.54 14.74Z" fill="black"/>
</svg>
