<svg width="28" height="28" viewBox="0 0 28 28" fill="none" xmlns="http://www.w3.org/2000/svg">
<g clip-path="url(#clip0_16_346)">
<path d="M23.8179 10.7272H4.18154C2.38154 10.7272 0.908813 12.2 0.908813 14C0.908813 15.8 2.38154 17.2727 4.18154 17.2727H23.8179C25.6179 17.2727 27.0906 15.8 27.0906 14C27.0906 12.2 25.6179 10.7272 23.8179 10.7272ZM23.8179 16.1818H4.18154C2.98154 16.1818 1.99972 15.2 1.99972 14C1.99972 12.8 2.98154 11.8181 4.18154 11.8181H23.8179C25.0179 11.8181 25.9997 12.8 25.9997 14C25.9997 15.2 25.0179 16.1818 23.8179 16.1818ZM4.18154 7.45451H17.2724C19.0725 7.45451 20.5452 5.98178 20.5452 4.18179C20.5452 2.38178 19.0725 0.909058 17.2724 0.909058H4.18154C2.38154 0.909058 0.908813 2.38178 0.908813 4.18179C0.908813 5.98178 2.38154 7.45451 4.18154 7.45451ZM4.18154 1.99997H17.2724C18.4725 1.99997 19.4543 2.98178 19.4543 4.18179C19.4543 5.38178 18.4725 6.3636 17.2724 6.3636H4.18154C2.98154 6.3636 1.99972 5.38178 1.99972 4.18179C1.99972 2.98178 2.98154 1.99997 4.18154 1.99997ZM10.727 20.5454H4.18154C2.38154 20.5454 0.908813 22.0181 0.908813 23.8181C0.908813 25.6181 2.38154 27.0909 4.18154 27.0909H10.727C12.527 27.0909 13.9997 25.6181 13.9997 23.8181C13.9997 22.0181 12.527 20.5454 10.727 20.5454ZM10.727 26H4.18154C2.98154 26 1.99972 25.0181 1.99972 23.8181C1.99972 22.6181 2.98154 21.6363 4.18154 21.6363H10.727C11.927 21.6363 12.9088 22.6181 12.9088 23.8181C12.9088 25.0181 11.927 26 10.727 26Z" fill="#595D75"/>
</g>
<defs>
<clipPath id="clip0_16_346">
<rect width="26.1818" height="26.1818" fill="white" transform="translate(0.908813 0.909058)"/>
</clipPath>
</defs>
</svg>
