<svg width="16" height="16" viewBox="0 0 16 16" fill="none" xmlns="http://www.w3.org/2000/svg">
<path fill-rule="evenodd" clip-rule="evenodd" d="M14.6666 7.99998C14.6666 11.6818 11.6818 14.6666 7.99992 14.6666C4.31802 14.6666 1.33325 11.6818 1.33325 7.99998C1.33325 4.31808 4.31802 1.33331 7.99992 1.33331C11.6818 1.33331 14.6666 4.31808 14.6666 7.99998ZM10.6868 5.97976C10.8821 6.17502 10.8821 6.49161 10.6868 6.68685L7.35345 10.0202C7.15819 10.2154 6.84165 10.2154 6.64637 10.0202L5.31303 8.68685C5.11777 8.49158 5.11777 8.17505 5.31303 7.97978C5.50829 7.78451 5.82488 7.78451 6.02014 7.97978L6.99992 8.95951L8.48979 7.46965L9.97972 5.97976C10.175 5.7845 10.4915 5.7845 10.6868 5.97976Z" fill="#05CD66"/>
</svg>
