<svg width="77" height="77" viewBox="0 0 77 77" fill="none" xmlns="http://www.w3.org/2000/svg">
<path fill-rule="evenodd" clip-rule="evenodd" d="M11.5502 38.4999C11.5489 34.1968 12.578 29.956 14.5515 26.1322C16.525 22.3083 19.3854 19.0126 22.8935 16.5207C26.4016 14.0288 30.4554 12.4132 34.7158 11.8089C38.9763 11.2047 43.3195 11.6294 47.3821 13.0476C48.3466 13.3835 49.4049 13.3226 50.3244 12.8782C51.2439 12.4338 51.9492 11.6423 52.2851 10.6779C52.6211 9.71348 52.5601 8.65512 52.1157 7.73563C51.6713 6.81614 50.8799 6.11086 49.9154 5.77492C42.8212 3.29992 35.1147 3.19793 27.9575 5.48433C20.8002 7.77073 14.5801 12.3216 10.2346 18.4511C5.8891 24.5805 3.6537 31.9564 3.86532 39.467C4.07693 46.9776 6.72411 54.2159 11.4079 60.0909C16.0916 65.966 22.5581 70.1594 29.8327 72.0391C37.1074 73.9189 44.7959 73.3831 51.7395 70.5126C58.6831 67.6421 64.5055 62.5923 68.3292 56.1245C72.1528 49.6566 73.7705 42.1211 72.9384 34.6538C72.8828 34.1512 72.7288 33.6645 72.4851 33.2215C72.2414 32.7785 71.9128 32.3878 71.5181 32.0718C71.1234 31.7557 70.6703 31.5205 70.1848 31.3796C69.6992 31.2387 69.1906 31.1947 68.688 31.2504C68.1855 31.306 67.6988 31.46 67.2558 31.7037C66.8128 31.9474 66.4221 32.276 66.1061 32.6707C65.79 33.0654 65.5548 33.5185 65.4139 34.004C65.2729 34.4896 65.229 34.9982 65.2846 35.5008C65.6902 39.1425 65.3488 42.8286 64.2814 46.3339C63.214 49.8392 61.443 53.09 59.0767 55.8876C56.7103 58.6853 53.7983 60.971 50.5187 62.605C47.239 64.2391 43.6606 65.1872 40.002 65.3914C36.3435 65.5956 32.6818 65.0516 29.2407 63.7927C25.7995 62.5337 22.6513 60.5863 19.9883 58.0693C17.3253 55.5524 15.2036 52.5188 13.7527 49.1541C12.3019 45.7894 11.5524 42.1641 11.5502 38.4999ZM68.3377 17.9486C69.0136 17.1828 69.3577 16.1798 69.2942 15.1604C69.2306 14.1409 68.7647 13.1884 67.9989 12.5124C67.2331 11.8365 66.2301 11.4924 65.2106 11.5559C64.1911 11.6195 63.2386 12.0854 62.5627 12.8512L37.7879 40.8792L25.5334 30.8962C25.1416 30.5766 24.6906 30.3374 24.2063 30.1921C23.7221 30.0469 23.2139 29.9984 22.7109 30.0496C21.695 30.1528 20.7618 30.6554 20.1164 31.4467C19.7969 31.8385 19.5577 32.2895 19.4124 32.7738C19.2672 33.258 19.2187 33.7662 19.2698 34.2692C19.3731 35.2851 19.8756 36.2183 20.667 36.8637L35.7936 49.1837C36.5643 49.8107 37.5475 50.1155 38.5376 50.0344C39.5278 49.9533 40.4483 49.4926 41.1066 48.7486L68.3377 17.9486Z" fill="#05CD66"/>
</svg>
