<svg width="24" height="24" viewBox="0 0 24 24" fill="none" xmlns="http://www.w3.org/2000/svg">
<g clip-path="url(#clip0_9_341)">
<path d="M11.5935 22.6248H5.33375C3.63256 22.6248 2.25226 21.2394 2.25226 19.5433V4.45671C2.25226 2.75552 3.63766 1.37521 5.33375 1.37521H11.6954C12.0774 1.37521 12.383 1.06961 12.383 0.687606C12.383 0.305603 12.0774 0 11.6954 0H5.33375C2.87365 0 0.877045 2.0017 0.877045 4.45671V19.5433C0.877045 22.0034 2.87874 24 5.33375 24H11.5935C11.9755 24 12.2811 23.6944 12.2811 23.3124C12.2811 22.9304 11.9704 22.6248 11.5935 22.6248Z" fill="black"/>
<path d="M22.9212 11.5162L18.5511 7.14607C18.2811 6.87612 17.8482 6.87612 17.5782 7.14607C17.3083 7.41601 17.3083 7.84895 17.5782 8.1189L20.7769 11.3175H6.82611C6.44411 11.3175 6.1385 11.6231 6.1385 12.0051C6.1385 12.3872 6.44411 12.6928 6.82611 12.6928H20.7769L17.5782 15.8914C17.3083 16.1613 17.3083 16.5943 17.5782 16.8642C17.7107 16.9967 17.8889 17.068 18.0621 17.068C18.2353 17.068 18.4135 17.0018 18.546 16.8642L22.9161 12.4941C23.1911 12.2191 23.1911 11.781 22.9212 11.5162Z" fill="black"/>
</g>
<defs>
<clipPath id="clip0_9_341">
<rect width="24" height="24" fill="white"/>
</clipPath>
</defs>
</svg>
