<svg width="44" height="45" viewBox="0 0 44 45" fill="none" xmlns="http://www.w3.org/2000/svg">
<circle cx="22" cy="22.5" r="22" fill="#E7EEE9"/>
<g clip-path="url(#clip0_16_387)">
<path d="M19.2589 21.8271L36.2193 32.1198C36.5309 32.3089 36.9368 32.2096 37.1259 31.898C37.315 31.5864 37.2157 31.1805 36.9041 30.9914L19.9437 20.6986C19.6321 20.5095 19.2262 20.6089 19.0371 20.9205C18.848 21.2321 18.9473 21.638 19.2589 21.8271Z" fill="black"/>
<path d="M20.1982 21.4972C22.4426 18.6414 27.27 18.1901 31.4071 20.5789C35.6922 23.0527 37.6889 27.6712 36.0752 31.0668C35.9187 31.396 36.0588 31.7897 36.388 31.9462C36.7172 32.1026 37.1109 31.9626 37.2674 31.6334C39.2058 27.5547 36.9025 22.2273 32.0671 19.4357C27.4025 16.7424 21.8481 17.2616 19.1604 20.6816C18.9351 20.9682 18.9848 21.3831 19.2714 21.6083C19.558 21.8335 19.9729 21.7838 20.1982 21.4972L20.1982 21.4972Z" fill="black"/>
<path d="M27.0525 26.7688L20.6699 37.4856C20.4834 37.7988 20.5861 38.2039 20.8992 38.3904C21.2124 38.5769 21.6175 38.4742 21.804 38.161L28.1865 27.4443C28.3731 27.1311 28.2704 26.726 27.9572 26.5395C27.644 26.353 27.239 26.4557 27.0525 26.7688ZM32.2056 17.8094L31.313 19.3555C31.1307 19.6711 31.2389 20.0748 31.5546 20.257C31.8703 20.4393 32.2739 20.3312 32.4561 20.0155L33.3488 18.4694C33.5311 18.1538 33.4229 17.7501 33.1072 17.5679C32.7915 17.3856 32.3879 17.4937 32.2056 17.8094ZM15.4898 13.1804C15.4898 11.6926 14.2838 10.4866 12.796 10.4866C11.3082 10.4866 10.1022 11.6926 10.1022 13.1804C10.1022 14.6682 11.3082 15.8742 12.796 15.8742C14.2838 15.8742 15.4898 14.6682 15.4898 13.1804ZM16.8098 13.1804C16.8098 15.3972 15.0128 17.1942 12.796 17.1942C10.5792 17.1942 8.78222 15.3972 8.78222 13.1804C8.78222 10.9636 10.5792 9.16663 12.796 9.16663C15.0128 9.16663 16.8098 10.9636 16.8098 13.1804ZM12.136 6.15976H13.456V7.14976H12.136V6.15976ZM13.456 7.14976C13.456 8.02977 12.136 8.02977 12.136 7.14976V6.15976C12.136 5.27975 13.456 5.27975 13.456 6.15976V7.14976ZM12.136 19.4423H13.456V20.4323H12.136V19.4423ZM13.456 20.4323C13.456 21.3123 12.136 21.3123 12.136 20.4323V19.4423C12.136 18.5623 13.456 18.5623 13.456 19.4423V20.4323ZM7.28311 8.71652L8.21648 7.78314L8.91674 8.4834L7.98336 9.41677L7.28311 8.71652ZM8.91674 8.4834C9.539 9.10566 8.60562 10.039 7.98336 9.41677L7.28311 8.71652C6.66084 8.09426 7.59422 7.16088 8.21648 7.78314L8.91674 8.4834ZM16.6752 18.1086L17.6086 17.1753L18.3089 17.8755L17.3755 18.8089L16.6752 18.1086ZM18.3089 17.8755C18.9312 18.4978 17.9978 19.4311 17.3755 18.8089L16.6753 18.1086C16.053 17.4864 16.9864 16.553 17.6087 17.1753L18.3089 17.8755ZM5.65976 13.956V12.636H6.64976V13.956H5.65976ZM6.64976 12.636C7.52977 12.636 7.52977 13.956 6.64976 13.956H5.65976C4.77975 13.956 4.77975 12.636 5.65976 12.636H6.64976ZM19.9323 12.636C20.8123 12.636 20.8123 13.956 19.9323 13.956H18.9423C18.0622 13.956 18.0622 12.636 18.9423 12.636H19.9323ZM7.98339 17.1753C8.60565 16.553 9.53903 17.4864 8.91677 18.1086L8.21652 18.8089C7.59425 19.4311 6.66088 18.4978 7.28314 17.8755L7.98339 17.1753ZM17.3755 7.78311C17.9978 7.16085 18.9311 8.09423 18.3089 8.71649L17.6086 9.41674C16.9864 10.039 16.053 9.10563 16.6752 8.48336L17.3755 7.78311Z" fill="black"/>
</g>
<defs>
<clipPath id="clip0_16_387">
<rect width="33" height="33" fill="white" transform="translate(5 5.5)"/>
</clipPath>
</defs>
</svg>
