<svg width="28" height="28" viewBox="0 0 28 28" fill="none" xmlns="http://www.w3.org/2000/svg">
<g clip-path="url(#clip0_16_329)">
<path d="M20.5455 15.6363C20.5455 15.3352 20.7899 15.0909 21.091 15.0909H22.1819C22.483 15.0909 22.7273 15.3352 22.7273 15.6363C22.7273 15.9374 22.483 16.1818 22.1819 16.1818H21.091C20.7899 16.1818 20.5455 15.9374 20.5455 15.6363ZM21.091 20.5454H22.1819C22.483 20.5454 22.7273 20.3011 22.7273 20C22.7273 19.6989 22.483 19.4545 22.1819 19.4545H21.091C20.7899 19.4545 20.5455 19.6989 20.5455 20C20.5455 20.3011 20.7899 20.5454 21.091 20.5454ZM16.7273 7.45451H17.8182C18.1193 7.45451 18.3637 7.21015 18.3637 6.90906C18.3637 6.60797 18.1193 6.3636 17.8182 6.3636H16.7273C16.4262 6.3636 16.1819 6.60797 16.1819 6.90906C16.1819 7.21015 16.4262 7.45451 16.7273 7.45451ZM21.091 7.45451H22.1819C22.483 7.45451 22.7273 7.21015 22.7273 6.90906C22.7273 6.60797 22.483 6.3636 22.1819 6.3636H21.091C20.7899 6.3636 20.5455 6.60797 20.5455 6.90906C20.5455 7.21015 20.7899 7.45451 21.091 7.45451ZM21.091 11.8181H22.1819C22.483 11.8181 22.7273 11.5738 22.7273 11.2727C22.7273 10.9716 22.483 10.7272 22.1819 10.7272H21.091C20.7899 10.7272 20.5455 10.9716 20.5455 11.2727C20.5455 11.5738 20.7899 11.8181 21.091 11.8181ZM17.8182 10.7272H16.7273C16.4262 10.7272 16.1819 10.9716 16.1819 11.2727C16.1819 11.5738 16.4262 11.8181 16.7273 11.8181H17.8182C18.1193 11.8181 18.3637 11.5738 18.3637 11.2727C18.3637 10.9716 18.1193 10.7272 17.8182 10.7272ZM22.1819 0.909058H16.7273C14.0208 0.909058 11.8182 3.1116 11.8182 5.81815V9.09088C11.8182 9.39197 12.0626 9.63633 12.3637 9.63633C12.6648 9.63633 12.9091 9.39197 12.9091 9.09088V5.81815C12.9091 3.71269 14.6219 1.99997 16.7273 1.99997H22.1819C24.2873 1.99997 26 3.71269 26 5.81815V22.1818C26 24.2872 24.2873 26 22.1819 26H18.9091C18.608 26 18.3637 26.2443 18.3637 26.5454C18.3637 26.8465 18.608 27.0909 18.9091 27.0909H22.1819C24.8884 27.0909 27.091 24.8883 27.091 22.1818V5.81815C27.091 3.1116 24.8884 0.909058 22.1819 0.909058ZM17.2728 18.1978V22.7272C17.2728 25.1338 15.3157 27.0909 12.9091 27.0909H5.27277C2.86622 27.0909 0.909134 25.1338 0.909134 22.7272V18.1978C0.909134 16.6781 1.59641 15.2687 2.79313 14.3316L6.06586 11.7701C7.84732 10.3771 10.3368 10.3771 12.116 11.7701L15.3899 14.3316C16.5866 15.2687 17.2739 16.6781 17.2739 18.1978H17.2728ZM16.1819 18.1978C16.1819 17.0163 15.6484 15.92 14.7157 15.1901L11.443 12.6287C10.7502 12.0876 9.92004 11.816 9.09095 11.816C8.26186 11.816 7.43168 12.0876 6.73786 12.6287L3.46622 15.1901C2.53459 15.92 2.00004 17.0163 2.00004 18.1978V22.7272C2.00004 24.5316 3.46841 26 5.27277 26H12.9091C14.7135 26 16.1819 24.5316 16.1819 22.7272V18.1978ZM11.8182 18.9091V21.0909C11.8182 21.9931 11.084 22.7272 10.1819 22.7272H8.00004C7.09786 22.7272 6.36368 21.9931 6.36368 21.0909V18.9091C6.36368 18.0069 7.09786 17.2727 8.00004 17.2727H10.1819C11.084 17.2727 11.8182 18.0069 11.8182 18.9091ZM10.7273 18.9091C10.7273 18.6091 10.4819 18.3636 10.1819 18.3636H8.00004C7.70004 18.3636 7.45459 18.6091 7.45459 18.9091V21.0909C7.45459 21.3909 7.70004 21.6363 8.00004 21.6363H10.1819C10.4819 21.6363 10.7273 21.3909 10.7273 21.0909V18.9091Z" fill="#4C6C5A"/>
</g>
<defs>
<clipPath id="clip0_16_329">
<rect width="26.1818" height="26.1818" fill="white" transform="translate(0.909134 0.909058)"/>
</clipPath>
</defs>
</svg>
