<svg width="60" height="60" viewBox="0 0 60 60" fill="none" xmlns="http://www.w3.org/2000/svg">
<rect width="60" height="60" rx="30" fill="#201F23"/>
<g clip-path="url(#clip0_55_5)">
<path d="M22 18H25C27.2091 18 29 19.7909 29 22V25C29 27.2091 27.2091 29 25 29H22C19.7909 29 18 27.2092 18 25V22C18 19.7909 19.7909 18 22 18Z" fill="white"/>
<path d="M34.9998 18H37.9998C40.209 18 41.9998 19.7909 41.9998 22V25C41.9998 27.2091 40.209 29 37.9998 29H34.9998C32.7907 29 30.9999 27.2091 30.9999 25V22C30.9998 19.7909 32.7907 18 34.9998 18Z" fill="white"/>
<path d="M22 31H25C27.2091 31 29 32.7909 29 35V38C29 40.2091 27.2091 42 25 42H22C19.7909 42 18 40.2092 18 38V35C18 32.7909 19.7909 31 22 31Z" fill="white"/>
<path d="M34.9998 31H37.9998C40.209 31 41.9998 32.7909 41.9998 35V38C41.9998 40.2092 40.209 42 37.9998 42H34.9998C32.7907 42 30.9999 40.2092 30.9999 38V35C30.9998 32.7909 32.7907 31 34.9998 31Z" fill="white"/>
</g>
<defs>
<clipPath id="clip0_55_5">
<rect width="24" height="24" fill="white" transform="translate(18 18)"/>
</clipPath>
</defs>
</svg>
