<svg width="16" height="16" viewBox="0 0 16 16" fill="none" xmlns="http://www.w3.org/2000/svg">
<path d="M7.99992 1.33331C4.33325 1.33331 1.33325 4.33331 1.33325 7.99998C1.33325 11.6666 4.33325 14.6666 7.99992 14.6666C11.6666 14.6666 14.6666 11.6666 14.6666 7.99998C14.6666 4.33331 11.6666 1.33331 7.99992 1.33331ZM10.4666 9.53331C10.7333 9.79998 10.7333 10.2 10.4666 10.4666C10.1999 10.7333 9.79992 10.7333 9.53325 10.4666L7.99992 8.93331L6.46658 10.4666C6.19992 10.7333 5.79992 10.7333 5.53325 10.4666C5.26659 10.2 5.26659 9.79998 5.53325 9.53331L7.06659 7.99998L5.53325 6.46665C5.26659 6.19998 5.26659 5.79998 5.53325 5.53331C5.79992 5.26665 6.19992 5.26665 6.46658 5.53331L7.99992 7.06665L9.53325 5.53331C9.79992 5.26665 10.1999 5.26665 10.4666 5.53331C10.7333 5.79998 10.7333 6.19998 10.4666 6.46665L8.93325 7.99998L10.4666 9.53331Z" fill="#FF0000"/>
</svg>
