<svg width="24" height="24" viewBox="0 0 24 24" fill="none" xmlns="http://www.w3.org/2000/svg">
<g clip-path="url(#clip0_55_28)">
<path d="M12 19.9999C11.724 19.9999 11.5 19.7759 11.5 19.4999C11.5 16.6039 13.71 15.0519 15.374 14.1359C18 12.6879 19.412 9.71088 18.888 6.72688C18.395 3.91488 16.086 1.60588 13.273 1.11288C11.252 0.756878 9.266 1.24788 7.681 2.49088C6.118 3.71888 5.146 5.55688 5.016 7.53288C4.997 7.80888 4.758 8.01188 4.484 7.99888C4.208 7.98088 4 7.74288 4.018 7.46688C4.167 5.20788 5.277 3.10688 7.064 1.70388C8.874 0.282877 11.138 -0.278123 13.446 0.126877C16.665 0.691878 19.308 3.33488 19.873 6.55388C20.471 9.95888 18.856 13.3579 15.856 15.0109C13.535 16.2899 12.5 17.6749 12.5 19.4999C12.5 19.7759 12.276 19.9999 12 19.9999ZM11 22.9999C11 23.5519 11.448 23.9999 12 23.9999C12.552 23.9999 13 23.5519 13 22.9999C13 22.4479 12.552 21.9999 12 21.9999C11.448 21.9999 11 22.4479 11 22.9999Z" fill="black"/>
</g>
<defs>
<clipPath id="clip0_55_28">
<rect width="24" height="24" fill="white"/>
</clipPath>
</defs>
</svg>
