<svg width="44" height="45" viewBox="0 0 44 45" fill="none" xmlns="http://www.w3.org/2000/svg">
<circle cx="22" cy="22.5" r="22" fill="#E7EEE9"/>
<path d="M26.2125 31.25C26.1571 31.2495 26.1021 31.2604 26.051 31.282C25.9999 31.3035 25.9538 31.3353 25.9155 31.3754C25.3828 31.9329 24.7426 32.3766 24.0336 32.6797C23.3246 32.9828 22.5616 33.1391 21.7905 33.1391C21.0194 33.1391 20.2564 32.9828 19.5474 32.6797C18.8384 32.3766 18.1982 31.9329 17.6655 31.3754C17.6272 31.3353 17.5811 31.3035 17.53 31.282C17.4789 31.2604 17.4239 31.2495 17.3685 31.25C14.9595 31.25 13.2996 31.8209 12.4383 32.9495C12.1687 33.3177 11.9822 33.7399 11.8916 34.1872C11.801 34.6344 11.8085 35.096 11.9136 35.54C11.9452 35.6424 12.0153 35.7285 12.1092 35.78C12.2031 35.8316 12.3134 35.8446 12.4167 35.8163C12.5201 35.788 12.6083 35.7206 12.6629 35.6284C12.7174 35.5362 12.7339 35.4264 12.7089 35.3222C12.6364 34.9977 12.6349 34.6613 12.7044 34.3361C12.7738 34.0109 12.9127 33.7045 13.1115 33.4379C13.7715 32.5667 15.1971 32.0981 17.2068 32.0717C18.4291 33.2787 20.0777 33.9554 21.7955 33.9554C23.5132 33.9554 25.1618 33.2787 26.3841 32.0717C28.3938 32.0981 29.8095 32.5667 30.4794 33.4379C30.6777 33.7041 30.8163 34.0099 30.8858 34.3345C30.9553 34.6591 30.954 34.9949 30.882 35.3189C30.8675 35.3711 30.8633 35.4257 30.8699 35.4795C30.8765 35.5333 30.8936 35.5853 30.9202 35.6325C30.9469 35.6797 30.9826 35.7212 31.0253 35.7546C31.068 35.788 31.1169 35.8126 31.1691 35.8271C31.2063 35.8319 31.2441 35.8319 31.2813 35.8271C31.3713 35.8262 31.4585 35.7961 31.5299 35.7413C31.6013 35.6866 31.653 35.6102 31.6773 35.5235C31.7815 35.0783 31.7877 34.6157 31.6954 34.1678C31.603 33.7199 31.4145 33.2975 31.1427 32.9297C30.2814 31.8308 28.6215 31.25 26.2125 31.25Z" fill="black"/>
<path d="M30.6147 20.6504C30.5712 20.5544 30.4925 20.4789 30.3947 20.4395C30.297 20.4002 30.1878 20.4001 30.09 20.4392C29.6613 20.6264 29.2202 20.7841 28.77 20.9111H28.7172C28.0077 16.9775 25.2093 14.2715 21.7971 14.2715C18.3849 14.2715 15.57 16.9775 14.91 20.8979C14.4942 20.9993 14.1245 21.2374 13.8602 21.574C13.5959 21.9106 13.4522 22.3262 13.4522 22.7541C13.4522 23.1821 13.5959 23.5977 13.8602 23.9343C14.1245 24.2709 14.4942 24.5089 14.91 24.6104C15.6063 28.8047 18.54 31.9265 21.8136 31.9265C25.0872 31.9265 28.0176 28.8047 28.7139 24.6104C29.1357 24.5207 29.5123 24.2853 29.7779 23.9456C30.0434 23.6058 30.1808 23.1834 30.1659 22.7525C30.1681 22.2849 30.0031 21.832 29.7006 21.4754C29.9382 21.3929 30.1758 21.3005 30.42 21.1949C30.5174 21.1478 30.5923 21.0643 30.6287 20.9625C30.6652 20.8606 30.6601 20.7485 30.6147 20.6504ZM21.7971 15.0965C24.8166 15.0965 27.2883 17.555 27.8856 21.1025C26.7121 21.3131 25.5059 21.2497 24.361 20.9171C23.2161 20.5845 22.1636 19.9918 21.2856 19.1852C21.2175 19.1162 21.1275 19.0733 21.0311 19.0636C20.9347 19.054 20.838 19.0783 20.7576 19.1324L18.4476 20.7131L18.6621 19.7231C18.6855 19.6289 18.6751 19.5296 18.6325 19.4424C18.5899 19.3552 18.518 19.2858 18.4294 19.2464C18.3407 19.207 18.241 19.2001 18.1478 19.227C18.0546 19.2538 17.9738 19.3126 17.9196 19.3931C17.3892 20.0815 16.6353 20.5635 15.7878 20.756C16.4676 17.39 18.87 15.0965 21.7971 15.0965ZM29.3244 22.7525C29.342 23.0083 29.2597 23.261 29.0947 23.4574C28.9298 23.6538 28.6951 23.7784 28.44 23.8052H28.374C28.2683 23.7966 28.1633 23.8287 28.0805 23.8949C27.9977 23.9612 27.9433 24.0566 27.9285 24.1616C27.3972 28.1216 24.7572 31.1114 21.7938 31.1114C18.8304 31.1114 16.1838 28.1216 15.6558 24.1616C15.6443 24.0598 15.5954 23.9659 15.5186 23.8982C15.4417 23.8305 15.3424 23.7938 15.24 23.7953H15.2037H15.141C14.8926 23.7534 14.667 23.6248 14.5043 23.4324C14.3417 23.24 14.2524 22.9962 14.2524 22.7442C14.2524 22.4923 14.3417 22.2485 14.5043 22.0561C14.667 21.8637 14.8926 21.7351 15.141 21.6932H15.207C15.2789 21.6979 15.3507 21.6831 15.4149 21.6503C16.1745 21.5379 16.9019 21.2669 17.55 20.855L17.4015 21.548C17.384 21.6285 17.391 21.7123 17.4216 21.7888C17.4522 21.8652 17.5049 21.9308 17.5731 21.977C17.6416 22.0222 17.722 22.0463 17.8041 22.0463C17.8878 22.0466 17.9696 22.0213 18.0384 21.9737L20.9391 19.9937C22.0065 20.8806 23.2681 21.503 24.6214 21.8103C25.9746 22.1177 27.3814 22.1013 28.7271 21.7625C28.9127 21.8509 29.0682 21.9918 29.1744 22.1678C29.2806 22.3438 29.3327 22.5471 29.3244 22.7525Z" fill="black"/>
<path d="M19.9656 24.033C19.931 23.9293 19.8566 23.8436 19.7588 23.7948C19.6611 23.7459 19.5479 23.7378 19.4442 23.7723L18.4971 24.1023C18.4054 24.1343 18.328 24.1976 18.2784 24.2811C18.2289 24.3646 18.2104 24.4629 18.2261 24.5587C18.2419 24.6545 18.291 24.7417 18.3647 24.8049C18.4384 24.8681 18.532 24.9032 18.6291 24.9042C18.6749 24.9041 18.7205 24.8974 18.7644 24.8844L19.7082 24.5544C19.7598 24.5377 19.8074 24.5108 19.8484 24.4753C19.8894 24.4399 19.9229 24.3966 19.9469 24.348C19.9709 24.2994 19.9849 24.2465 19.9881 24.1924C19.9913 24.1383 19.9837 24.0841 19.9656 24.033Z" fill="black"/>
<path d="M24.6879 24.0957L23.7408 23.7657C23.6371 23.7312 23.5239 23.7393 23.4262 23.7882C23.3284 23.8371 23.254 23.9227 23.2194 24.0264C23.2005 24.0787 23.1926 24.1344 23.1962 24.1899C23.1997 24.2455 23.2147 24.2997 23.24 24.3492C23.2654 24.3987 23.3007 24.4425 23.3437 24.4778C23.3867 24.5131 23.4365 24.5392 23.49 24.5544L24.4371 24.8844C24.4798 24.8976 24.5244 24.9043 24.5691 24.9042C24.6662 24.9033 24.7598 24.8681 24.8335 24.8049C24.9073 24.7417 24.9563 24.6545 24.9721 24.5587C24.9878 24.4629 24.9693 24.3646 24.9198 24.2811C24.8702 24.1977 24.7928 24.1343 24.7011 24.1023L24.6879 24.0957Z" fill="black"/>
<path d="M22.3251 13.0242C22.4325 13.0213 22.5344 12.9763 22.6089 12.8988C22.6469 12.8602 22.6768 12.8142 22.6966 12.7638C22.7165 12.7133 22.7259 12.6593 22.7244 12.6051C22.7218 12.4971 22.6773 12.3944 22.6004 12.3186C22.5234 12.2429 22.4199 12.2 22.3119 12.1992C22.202 12.2027 22.0979 12.2489 22.0215 12.3279C21.9646 12.3857 21.9261 12.4591 21.911 12.5389C21.8959 12.6186 21.9048 12.701 21.9367 12.7756C21.9685 12.8502 22.0218 12.9137 22.0898 12.958C22.1578 13.0022 22.2374 13.0253 22.3185 13.0242H22.3251Z" fill="black"/>
<path d="M33.4692 14.6147C31.9578 13.3277 28.7436 12.4631 24.6516 12.242C24.5703 12.2377 24.4895 12.2575 24.4194 12.299C24.3493 12.3405 24.293 12.4018 24.2577 12.4752C24.2225 12.5486 24.2097 12.6308 24.221 12.7115C24.2324 12.7922 24.2674 12.8676 24.3216 12.9284C24.3953 13.0107 24.4985 13.0605 24.6087 13.067C27.1398 13.1957 29.4465 13.6115 31.0965 14.2385C31.7579 14.4642 32.3769 14.7988 32.928 15.2285C33.0884 15.344 33.2229 15.4917 33.323 15.6622C33.423 15.8327 33.4863 16.0222 33.5088 16.2185C33.5088 16.5749 33.2778 16.9478 32.8191 17.3273C32.1615 17.8219 31.4267 18.2044 30.6444 18.4592C30.5424 18.4986 30.4597 18.5759 30.4135 18.675C30.3673 18.7741 30.3614 18.8872 30.3969 18.9905C30.4265 19.07 30.4796 19.1384 30.5492 19.1868C30.6188 19.2352 30.7016 19.2611 30.7863 19.2611C30.8335 19.2618 30.8804 19.2539 30.9249 19.238C31.7962 18.9503 32.6136 18.5198 33.3438 17.9642C34.0038 17.4296 34.3338 16.8422 34.3338 16.2185V16.202C34.3119 15.8909 34.2234 15.5882 34.0742 15.3143C33.925 15.0404 33.7187 14.8019 33.4692 14.6147Z" fill="black"/>
<path d="M13.5438 18.8683C13.6249 18.8672 13.7038 18.8421 13.7707 18.7963C13.8376 18.7506 13.8895 18.6861 13.92 18.6109C13.9421 18.5588 13.9536 18.5026 13.9536 18.4459C13.9536 18.3893 13.9421 18.3331 13.92 18.2809C13.8988 18.2307 13.8678 18.1852 13.8287 18.1472C13.7895 18.1092 13.7432 18.0795 13.6923 18.0598C13.0142 17.8099 12.382 17.4497 11.8212 16.9939C11.6583 16.8742 11.5224 16.7215 11.4224 16.5458C11.3223 16.3702 11.2603 16.1754 11.2404 15.9742C11.2404 15.5122 11.6793 14.9842 12.4614 14.5354C12.5525 14.4788 12.6179 14.3888 12.6438 14.2847C12.6697 14.1806 12.654 14.0705 12.6 13.9777C12.5425 13.8858 12.4522 13.8192 12.3473 13.7916C12.2424 13.764 12.131 13.7775 12.0357 13.8292C10.9764 14.4463 10.4253 15.1657 10.4055 15.9643V15.9874C10.4192 16.3085 10.5031 16.6226 10.6514 16.9077C10.7996 17.1928 11.0086 17.4419 11.2635 17.6374C11.8928 18.161 12.6071 18.5728 13.3755 18.8551C13.4301 18.8709 13.4874 18.8754 13.5438 18.8683Z" fill="black"/>
<path d="M14.3886 13.7204C14.4287 13.7198 14.4686 13.7142 14.5074 13.7039C14.61 13.671 14.6962 13.6002 14.7483 13.5059C14.7742 13.4584 14.7903 13.4061 14.7954 13.3522C14.8005 13.2983 14.7946 13.2439 14.778 13.1924C14.7526 13.1079 14.7007 13.0337 14.63 12.9808C14.5593 12.928 14.4736 12.8992 14.3853 12.8987C14.3462 12.8989 14.3074 12.9044 14.2698 12.9152C14.2175 12.9303 14.1687 12.9557 14.1263 12.9899C14.084 13.0241 14.0488 13.0664 14.023 13.1143C13.9972 13.1623 13.9812 13.2149 13.976 13.2691C13.9708 13.3233 13.9764 13.378 13.9926 13.43C14.0188 13.5144 14.0714 13.5882 14.1427 13.6405C14.214 13.6928 14.3002 13.7208 14.3886 13.7204Z" fill="black"/>
<path d="M21.51 26.63C21.0708 26.6278 20.6357 26.7144 20.2309 26.8845C19.826 27.0546 19.4596 27.3048 19.1538 27.62L19.0911 27.686C19.0143 27.7638 18.9713 27.8687 18.9713 27.978C18.9713 28.0874 19.0143 28.1923 19.0911 28.2701C19.1689 28.3433 19.2714 28.3845 19.3782 28.3856C19.4336 28.3857 19.4884 28.3747 19.5395 28.3531C19.5905 28.3316 19.6366 28.3 19.6752 28.2602L19.7379 28.1942C19.9661 27.9565 20.24 27.7674 20.5431 27.6383C20.8462 27.5091 21.1723 27.4425 21.5018 27.4425C21.8312 27.4425 22.1573 27.5091 22.4604 27.6383C22.7635 27.7674 23.0374 27.9565 23.2656 28.1942C23.3417 28.2752 23.4469 28.3226 23.558 28.326C23.6691 28.3294 23.777 28.2885 23.858 28.2123C23.9389 28.1362 23.9863 28.031 23.9897 27.9199C23.9931 27.8088 23.9522 27.701 23.8761 27.62C23.5692 27.3034 23.2013 27.0525 22.7946 26.8823C22.3879 26.7121 21.9509 26.6263 21.51 26.63Z" fill="black"/>
<path d="M19.7907 11.7404C19.7671 11.6677 19.7237 11.6029 19.6655 11.5534C19.6072 11.5039 19.5363 11.4715 19.4607 11.4599L18.507 11.3213L18.0747 10.46C18.0406 10.3912 17.9879 10.3332 17.9226 10.2927C17.8573 10.2522 17.782 10.2307 17.7051 10.2307C17.6282 10.2307 17.5529 10.2522 17.4876 10.2927C17.4223 10.3332 17.3696 10.3912 17.3355 10.46L16.9065 11.3279L15.9528 11.45C15.8773 11.462 15.8066 11.4944 15.7484 11.5439C15.6902 11.5934 15.6467 11.658 15.6228 11.7305C15.5985 11.8034 15.5951 11.8817 15.6132 11.9564C15.6313 12.0311 15.6701 12.0992 15.7251 12.1529L16.4181 12.8129L16.2564 13.7666C16.2434 13.8424 16.2518 13.9203 16.2807 13.9915C16.3096 14.0627 16.3578 14.1245 16.4199 14.1698C16.482 14.2151 16.5555 14.2421 16.6322 14.2478C16.7088 14.2536 16.7855 14.2378 16.8537 14.2022L17.7051 13.76L18.5598 14.2121C18.6192 14.2422 18.6847 14.258 18.7512 14.2583C18.8114 14.2587 18.8711 14.2459 18.9258 14.2208C18.9806 14.1956 19.0292 14.1588 19.0682 14.1129C19.1072 14.067 19.1356 14.013 19.1516 13.9549C19.1675 13.8968 19.1705 13.8359 19.1604 13.7765L18.9954 12.8228L19.6884 12.1628C19.7434 12.1091 19.7822 12.041 19.8003 11.9663C19.8184 11.8916 19.815 11.8133 19.7907 11.7404ZM18.2628 12.4004C18.215 12.4481 18.1795 12.5066 18.1594 12.571C18.1393 12.6354 18.1351 12.7037 18.1473 12.77L18.21 13.1L17.9031 12.9416C17.8445 12.9093 17.7786 12.8923 17.7117 12.8923C17.6448 12.8923 17.5789 12.9093 17.5203 12.9416L17.22 13.1L17.2794 12.77C17.2903 12.7039 17.2852 12.6362 17.2646 12.5724C17.2439 12.5087 17.2082 12.4509 17.1606 12.4037L16.89 12.1562L17.22 12.1067C17.2898 12.1 17.3568 12.0755 17.4145 12.0357C17.4723 11.9958 17.5189 11.9419 17.55 11.879L17.7051 11.5688L17.8602 11.879C17.8895 11.9393 17.9331 11.9916 17.9871 12.0313C18.0412 12.071 18.1041 12.0969 18.1704 12.1067L18.5004 12.1562L18.2628 12.4004Z" fill="black"/>
</svg>
