<svg width="48" height="48" viewBox="0 0 48 48" fill="none" xmlns="http://www.w3.org/2000/svg">
<g clip-path="url(#clip0_16_375)">
<circle cx="24" cy="24" r="24" fill="#F1E8D6"/>
<path d="M41 24.5C41 24.8647 40.8551 25.2144 40.5973 25.4723C40.3394 25.7301 39.9897 25.875 39.625 25.875C39.2603 25.875 38.9106 25.7301 38.6527 25.4723C38.3949 25.2144 38.25 24.8647 38.25 24.5C38.246 20.8545 36.7961 17.3595 34.2183 14.7817C31.6405 12.2039 28.1455 10.754 24.5 10.75C24.1353 10.75 23.7856 10.6051 23.5277 10.3473C23.2699 10.0894 23.125 9.73967 23.125 9.375C23.125 9.01033 23.2699 8.66059 23.5277 8.40273C23.7856 8.14487 24.1353 8 24.5 8C28.8746 8.00473 33.0687 9.74464 36.162 12.838C39.2554 15.9313 40.9953 20.1254 41 24.5ZM30 25.875C30.3647 25.875 30.7144 25.7301 30.9723 25.4723C31.2301 25.2144 31.375 24.8647 31.375 24.5C31.375 24.1353 31.2301 23.7856 30.9723 23.5277C30.7144 23.2699 30.3647 23.125 30 23.125H26.8691C26.6295 22.7131 26.2869 22.3705 25.875 22.1309V17.625C25.875 17.2603 25.7301 16.9106 25.4723 16.6527C25.2144 16.3949 24.8647 16.25 24.5 16.25C24.1353 16.25 23.7856 16.3949 23.5277 16.6527C23.2699 16.9106 23.125 17.2603 23.125 17.625V22.1309C22.7603 22.3409 22.4489 22.632 22.2148 22.9817C21.9807 23.3314 21.8302 23.7303 21.775 24.1474C21.7198 24.5646 21.7614 24.9889 21.8966 25.3874C22.0317 25.786 22.2568 26.148 22.5544 26.4456C22.852 26.7432 23.214 26.9683 23.6126 27.1034C24.0111 27.2386 24.4354 27.2802 24.8526 27.225C25.2697 27.1698 25.6686 27.0194 26.0183 26.7852C26.368 26.5511 26.6591 26.2397 26.8691 25.875H30ZM10.5121 17.328C10.2402 17.328 9.97433 17.4086 9.74822 17.5597C9.5221 17.7108 9.34586 17.9256 9.24179 18.1768C9.13772 18.4281 9.11049 18.7045 9.16355 18.9712C9.2166 19.238 9.34756 19.483 9.53985 19.6753C9.73215 19.8676 9.97715 19.9985 10.2439 20.0516C10.5106 20.1046 10.7871 20.0774 11.0383 19.9733C11.2896 19.8693 11.5043 19.693 11.6554 19.4669C11.8065 19.2408 11.8871 18.9749 11.8871 18.703C11.8871 18.3383 11.7423 17.9886 11.4844 17.7307C11.2265 17.4729 10.8768 17.328 10.5121 17.328ZM10.75 24.5C10.75 24.2281 10.6694 23.9622 10.5183 23.7361C10.3672 23.51 10.1524 23.3337 9.90119 23.2297C9.64994 23.1256 9.37348 23.0984 9.10675 23.1514C8.84003 23.2045 8.59503 23.3354 8.40273 23.5277C8.21043 23.72 8.07948 23.965 8.02642 24.2318C7.97337 24.4985 8.0006 24.7749 8.10467 25.0262C8.20874 25.2774 8.38497 25.4922 8.61109 25.6433C8.83721 25.7944 9.10305 25.875 9.375 25.875C9.73967 25.875 10.0894 25.7301 10.3473 25.4723C10.6051 25.2144 10.75 24.8647 10.75 24.5ZM24.5 38.25C24.2281 38.25 23.9622 38.3306 23.7361 38.4817C23.51 38.6328 23.3337 38.8476 23.2297 39.0988C23.1256 39.3501 23.0984 39.6265 23.1514 39.8932C23.2045 40.16 23.3354 40.405 23.5277 40.5973C23.72 40.7896 23.965 40.9205 24.2318 40.9736C24.4985 41.0266 24.7749 40.9994 25.0262 40.8953C25.2774 40.7913 25.4922 40.615 25.6433 40.3889C25.7944 40.1628 25.875 39.8969 25.875 39.625C25.875 39.2603 25.7301 38.9106 25.4723 38.6527C25.2144 38.3949 24.8647 38.25 24.5 38.25ZM13.8039 12.4096C13.5319 12.4096 13.2661 12.4903 13.04 12.6414C12.8138 12.7924 12.6376 13.0072 12.5335 13.2584C12.4295 13.5097 12.4022 13.7862 12.4553 14.0529C12.5084 14.3196 12.6393 14.5646 12.8316 14.7569C13.0239 14.9492 13.2689 15.0802 13.5356 15.1332C13.8024 15.1863 14.0788 15.159 14.3301 15.055C14.5813 14.9509 14.7961 14.7747 14.9471 14.5485C15.0982 14.3224 15.1789 14.0566 15.1789 13.7846C15.1789 13.42 15.034 13.0702 14.7761 12.8124C14.5183 12.5545 14.1685 12.4096 13.8039 12.4096ZM18.6961 9.15638C18.4242 9.15638 18.1583 9.23702 17.9322 9.3881C17.7061 9.53919 17.5299 9.75394 17.4258 10.0052C17.3217 10.2564 17.2945 10.5329 17.3475 10.7996C17.4006 11.0663 17.5316 11.3113 17.7239 11.5036C17.9162 11.6959 18.1612 11.8269 18.4279 11.88C18.6946 11.933 18.9711 11.9058 19.2223 11.8017C19.4736 11.6976 19.6883 11.5214 19.8394 11.2953C19.9905 11.0692 20.0711 10.8033 20.0711 10.5314C20.0711 10.1667 19.9263 9.81697 19.6684 9.5591C19.4105 9.30124 19.0608 9.15638 18.6961 9.15638ZM10.5121 28.922C10.2402 28.922 9.97433 29.0026 9.74822 29.1537C9.5221 29.3048 9.34586 29.5196 9.24179 29.7708C9.13772 30.0221 9.11049 30.2985 9.16355 30.5653C9.2166 30.832 9.34756 31.077 9.53985 31.2693C9.73215 31.4616 9.97715 31.5925 10.2439 31.6456C10.5106 31.6986 10.7871 31.6714 11.0383 31.5673C11.2896 31.4633 11.5043 31.287 11.6554 31.0609C11.8065 30.8348 11.8871 30.5689 11.8871 30.297C11.8871 29.9323 11.7423 29.5826 11.4844 29.3247C11.2265 29.0669 10.8768 28.922 10.5121 28.922ZM13.8039 33.8404C13.5319 33.8404 13.2661 33.921 13.04 34.0721C12.8138 34.2232 12.6376 34.4379 12.5335 34.6892C12.4295 34.9404 12.4022 35.2169 12.4553 35.4836C12.5084 35.7503 12.6393 35.9953 12.8316 36.1876C13.0239 36.3799 13.2689 36.5109 13.5356 36.564C13.8024 36.617 14.0788 36.5898 14.3301 36.4857C14.5813 36.3816 14.7961 36.2054 14.9471 35.9793C15.0982 35.7532 15.1789 35.4873 15.1789 35.2154C15.1789 34.8507 15.034 34.501 14.7761 34.2431C14.5183 33.9852 14.1685 33.8404 13.8039 33.8404ZM18.6961 37.0936C18.4242 37.0936 18.1583 37.1743 17.9322 37.3254C17.7061 37.4764 17.5299 37.6912 17.4258 37.9424C17.3217 38.1937 17.2945 38.4701 17.3475 38.7369C17.4006 39.0036 17.5316 39.2486 17.7239 39.4409C17.9162 39.6332 18.1612 39.7642 18.4279 39.8172C18.6946 39.8703 18.9711 39.843 19.2223 39.739C19.4736 39.6349 19.6883 39.4587 19.8394 39.2325C19.9905 39.0064 20.0711 38.7406 20.0711 38.4686C20.0711 38.104 19.9263 37.7542 19.6684 37.4964C19.4105 37.2385 19.0608 37.0936 18.6961 37.0936ZM38.4879 28.922C38.2159 28.922 37.9501 29.0026 37.724 29.1537C37.4978 29.3048 37.3216 29.5196 37.2175 29.7708C37.1135 30.0221 37.0862 30.2985 37.1393 30.5653C37.1924 30.832 37.3233 31.077 37.5156 31.2693C37.7079 31.4616 37.9529 31.5925 38.2196 31.6456C38.4863 31.6986 38.7628 31.6714 39.0141 31.5673C39.2653 31.4633 39.4801 31.287 39.6311 31.0609C39.7822 30.8348 39.8629 30.5689 39.8629 30.297C39.8629 30.1164 39.8273 29.9376 39.7582 29.7708C39.6891 29.604 39.5878 29.4524 39.4601 29.3247C39.3325 29.197 39.1809 29.0958 39.0141 29.0267C38.8472 28.9576 38.6684 28.922 38.4879 28.922ZM35.1961 33.8404C34.9242 33.8404 34.6583 33.921 34.4322 34.0721C34.2061 34.2232 34.0299 34.4379 33.9258 34.6892C33.8217 34.9404 33.7945 35.2169 33.8475 35.4836C33.9006 35.7503 34.0316 35.9953 34.2239 36.1876C34.4162 36.3799 34.6612 36.5109 34.9279 36.564C35.1946 36.617 35.4711 36.5898 35.7223 36.4857C35.9736 36.3816 36.1883 36.2054 36.3394 35.9793C36.4905 35.7532 36.5711 35.4873 36.5711 35.2154C36.5711 35.0348 36.5356 34.856 36.4665 34.6892C36.3974 34.5224 36.2961 34.3708 36.1684 34.2431C36.0407 34.1154 35.8891 34.0141 35.7223 33.945C35.5555 33.8759 35.3767 33.8404 35.1961 33.8404ZM30.3039 37.0936C30.0319 37.0936 29.7661 37.1743 29.54 37.3254C29.3138 37.4764 29.1376 37.6912 29.0335 37.9424C28.9295 38.1937 28.9022 38.4701 28.9553 38.7369C29.0083 39.0036 29.1393 39.2486 29.3316 39.4409C29.5239 39.6332 29.7689 39.7642 30.0356 39.8172C30.3023 39.8703 30.5788 39.843 30.8301 39.739C31.0813 39.6349 31.2961 39.4587 31.4471 39.2325C31.5982 39.0064 31.6789 38.7406 31.6789 38.4686C31.6789 38.2881 31.6433 38.1093 31.5742 37.9424C31.5051 37.7756 31.4038 37.624 31.2761 37.4964C31.1485 37.3687 30.9969 37.2674 30.8301 37.1983C30.6632 37.1292 30.4844 37.0936 30.3039 37.0936Z" fill="black"/>
</g>
<defs>
<clipPath id="clip0_16_375">
<rect width="48" height="48" fill="white"/>
</clipPath>
</defs>
</svg>
